<svg width="667" height="395" viewBox="0 0 667 395" fill="none" xmlns="http://www.w3.org/2000/svg">
<path d="M392.5 383.833V273.167C466.833 284.5 490.333 343 537.667 383.833H658.333C628.165 316.482 583.153 256.827 526.667 209.333C570 149.667 616 93.5 638.5 8.33337H528.833C485.833 73.5 463.167 149.833 392.5 200.167V8.33337H233.333L271.333 55.3334V222.833C209.667 215.667 168 102.833 122.833 8.33337H8.33339C50.0001 136 137.667 416.167 392.5 383.833Z" stroke="black" stroke-width="16.6667" stroke-linecap="round" stroke-linejoin="round"/>
<path d="M551.364 36.2263C552.209 37.5005 555.193 38.7875 559.765 40.3819C566.664 42.788 571.22 40.7085 569.943 40.8141C566.332 41.1127 561.199 39.6455 557.249 38.3649C553.893 37.277 550.737 38.7875 548.489 38.8964C548.037 38.9183 548.163 37.7374 547.951 36.9851C547.539 35.5175 556.391 34.9457 571.115 34.7344C578.78 34.6244 582.086 33.0247 587.718 32.4933C596.672 31.6483 602.589 31.7505 602.8 30.4731C602.911 29.8049 603.434 29.1957 603.335 29.5031C602.089 33.3613 598.337 37.6862 595.766 41.4448C595.123 43.0392 594.483 44.7552 593.842 46.3528C593.625 47.1051 593.625 47.739 593.625 48.3922" stroke="black" stroke-width="50" stroke-linecap="round"/>
<path d="M602.589 30.4635C603.012 30.2522 603.434 30.0409 604.075 29.7208C604.715 29.4006 605.56 28.978 607.711 28.5426" stroke="black" stroke-width="50" stroke-linecap="round"/>
<path d="M605.79 49.6727C603.665 50.9469 600.681 53.0792 597.053 56.3832C594.529 58.6826 592.357 62.4533 590.004 66.2023C588.472 68.6419 585.954 70.7901 582.647 75.1602C580.827 77.5642 578.059 80.5996 574.022 86.9707C567.463 97.3203 563.325 104.944 561.094 106.964C555.36 112.155 553.503 114.971 551.585 118.173C549.718 121.29 546.472 125.204 543.585 127.675C539.544 131.133 537.924 133.764 536.964 134.402C534.687 135.912 533.026 140.789 531.307 144.214C529.276 148.26 525.329 152.75 524.369 156.377C523.5 159.658 518.952 163.199 515.942 166.199C513.128 169.004 508.912 171.523 505.486 173.989C502.502 179.22 496.964 183.049 492.472 186.155C491.399 186.904 490.343 187.749 487.974 189.9" stroke="black" stroke-width="50" stroke-linecap="round"/>
<path d="M559.048 118.826C556.711 119.46 553.721 122.437 551.374 126.174C548.366 130.963 548.38 135.666 545.72 138.877C542.842 142.351 540.492 145.066 535.907 147.63C532.928 149.297 532.373 152.75 530.244 156.588C528.106 160.442 526.828 162.995 524.692 166.622C523.183 169.185 520.22 171.741 517.543 173.566C514.728 175.485 512.754 180.27 506.78 185.934C502.368 190.116 491.88 194.344 481.814 199.489C476.362 202.276 471.351 205.678 456.336 209.206C450.734 210.522 445.111 212.081 439.759 213.905C431.729 216.643 426.952 218.061 421.193 220.305C414.372 222.963 411.15 223.837 404.778 225.428C393.567 227.23 385.531 228.741 384.148 229.487C383.399 229.811 382.553 230.022 381.683 230.88" stroke="black" stroke-width="50" stroke-linecap="round"/>
<path d="M556.487 55.4355C554.361 57.7727 552.645 62.0307 551.265 66.0903C549.038 72.6419 546.267 80.3692 541.251 88.4819C532.275 102.996 527.891 111.334 526.293 115.503C525.521 117.516 523.626 119.876 521.817 122.966C520.211 125.71 512.158 129.679 501.811 135.221C493.969 139.421 490.778 144.426 485.857 147.835C478.503 152.931 474.553 157.654 471.124 160.965C466.326 165.597 464.718 169.82 462.902 172.814C460.743 176.374 459.173 179.425 456.608 182.844C454.337 185.873 451.066 187.326 448.179 189.891C445.448 192.315 442.947 193.512 438.161 196.822C430.295 202.262 426.107 207.176 422.672 209.209C422.028 209.744 421.394 210.377 420.751 210.704C420.107 211.031 419.474 211.031 418.82 211.031" stroke="black" stroke-width="50" stroke-linecap="round"/>
<path d="M542.4 40.0681C541.548 41.3423 540.274 44.3198 538.565 47.6334C537.027 50.6133 535.152 53.5018 532.911 56.0662C530.614 58.6939 530.67 63.1064 529.386 65.5652C528.091 68.0444 526.61 70.1498 525.012 73.1401C523.471 76.0242 521.283 79.9593 518.929 82.9592C516.984 85.4398 514.88 89.1414 513.061 92.9832C510.162 99.1074 506.338 101.307 504.628 105.152C503.324 108.085 500.152 110.694 497.377 115.394C494.381 120.466 489.485 124.358 487.766 127.14C486.011 129.979 484.35 132.682 482.221 136.207C480.943 138.227 479.656 140.161 478.379 141.759C477.735 142.511 477.101 143.145 475.808 145.079" stroke="black" stroke-width="50" stroke-linecap="round"/>
<path d="M605.791 359.582C605.791 359.16 602.621 357.251 592.642 348.985C585.352 342.946 575.478 330.999 569.722 324.381C562.866 316.499 558.869 311.38 553.218 305.835C550.979 303.638 549.892 302.825 541.952 294.994C534.012 287.163 519.221 272.372 509.911 263.485C497.22 252.062 493.314 248.604 492.04 246.584C491.188 245.409 489.92 243.93 487.333 241.765" stroke="black" stroke-width="50" stroke-linecap="round"/>
<path d="M618.597 365.345C620.294 365.345 623.072 365.556 623.61 365.982C623.795 366.128 622.669 366.408 621.811 366.2C618.069 365.292 617.316 361.516 615.831 357.677C614.096 353.195 611.566 350.631 610.276 347.429C608.736 343.608 604.536 337.632 601.744 333.342C599.429 329.785 596.416 326.734 593.74 322.14C591.637 318.531 588.515 313.083 584.356 308.159C582.054 305.433 580.396 303.248 576.778 299.089C574.135 296.051 570.804 291.735 567.702 287.986C565.156 284.91 561.622 280.414 557.037 277.101C553.364 274.446 550.096 270.374 547.747 267.922C544.213 264.234 541.132 261.845 528.153 249.286C519.559 240.969 511.678 233.032 509.114 230.355C508.47 229.817 507.836 229.395 506.981 228.649C506.126 227.903 505.07 226.846 503.341 224.477" stroke="black" stroke-width="50" stroke-linecap="round"/>
<path d="M573.135 358.942C571.649 357.879 568.243 357.021 564.292 354.789C560.878 352.861 556.717 352.756 552.767 351.476C549.553 350.434 546.472 348.287 543.479 345.825C542.603 345.104 541.568 344.023 541.446 343.795C540.125 341.328 546.229 348.466 547.839 351.248C548.167 351.814 547.74 352.526 547.209 352.324C542.909 350.692 541.977 345.508 540.38 342.838C538.35 339.445 536.637 337.184 535.043 331.857C533.845 327.854 530.26 323.11 524.404 315.769C520.844 311.306 513.727 303.606 506.965 296.515C500.204 289.423 493.865 283.296 488.803 278.026C483.741 272.756 480.149 268.53 475.974 264.134C467.376 255.082 462.995 250.73 464.484 251.258C469.251 252.949 471.095 259.451 472.92 264.794C475.321 271.825 477.934 274.613 480.28 278.25C482.51 281.705 483.056 286.561 485.192 290.31C486.617 292.813 489.664 294.898 494.146 295.763C498.182 296.541 499.922 300.661 501.519 303.225C503.741 306.792 506.53 310.906 510.365 315.804C515.965 322.956 518.696 324.57 523.914 328.508C527.516 331.226 529.799 333.752 530.34 334.392C533.32 337.92 516.006 324.865 509.334 317.238C503.258 310.293 501.023 303.491 498.014 298.766C495.487 294.798 492.469 291.3 490.116 287.986C485.959 282.132 477.101 274.216 469.36 271.45C453.085 265.635 441.02 263.76 440.383 261.842C439.805 260.103 436.768 258.849 424.59 255.666C414.393 253.002 395.718 249.526 380.645 247.461C365.572 245.396 354.585 245.185 344.064 244.23C333.544 243.276 323.824 241.586 316.704 240.715C309.584 239.844 305.358 239.844 301.004 239.844" stroke="black" stroke-width="50" stroke-linecap="round"/>
<path d="M280.514 227.679C282.217 227.045 285.188 224.49 287.125 221.605C288.185 220.853 289.049 219.79 289.686 218.298C290.112 217.651 290.746 217.229 292.039 215.513" stroke="black" stroke-width="50" stroke-linecap="round"/>
<path d="M289.478 59.9177C291.175 62.4597 293.743 68.4338 294.066 73.9821C294.391 79.5594 295.023 82.956 295.772 87.3261C296.608 92.1998 299.083 96.8251 300.677 109.17C301.282 113.855 301.426 119.217 302.172 129.202C303.326 144.648 303.136 155.734 303.667 159.14C304.655 165.471 306.971 170.87 307.512 176.752C308.131 183.477 309.737 197.469 312.52 208.229C313.163 210.153 313.797 212.478 314.124 214.098C314.45 215.718 314.45 216.563 315.731 218.074" stroke="black" stroke-width="50" stroke-linecap="round"/>
<path d="M299.083 175.814C298.66 175.814 298.237 175.814 298.02 176.131C296.612 178.18 295.894 183.677 295.135 187.541C294.253 192.035 293.743 197.558 294.492 200.882C295.023 203.981 295.881 207.17 295.67 210.474C295.459 211.876 295.036 212.721 294.601 213.592" stroke="black" stroke-width="50" stroke-linecap="round"/>
<path d="M308.687 45.1906C312.516 51.1518 315.513 55.8453 319.765 62.8695C323.549 69.1217 325.752 75.0545 327.669 78.3553C329.393 81.3231 334.677 90.7869 342.358 103.583C345.303 108.49 345.812 110.464 346.667 115.775C347.522 121.086 348.579 129.75 349.123 138.861C350.221 157.245 349.456 167.694 349.136 169.926C348.269 175.965 348.386 189.567 349.555 197.68C350.73 200.779 351.588 203.545 351.165 206.949C350.743 208.873 349.898 211.197 347.746 214.232" stroke="black" stroke-width="50" stroke-linecap="round"/>
<path d="M363.754 27.262H362.473" stroke="black" stroke-width="50" stroke-linecap="round"/>
<path d="M360.552 43.2697V210.39" stroke="black" stroke-width="50" stroke-linecap="round"/>
<path d="M353.509 31.7441C353.509 32.1667 353.509 32.5893 353.192 33.0184C352.875 33.4474 352.241 33.87 338.708 34.0877C325.175 34.3054 298.763 34.3054 286.741 34.3054C274.719 34.3054 277.888 34.3054 281.154 34.3054" stroke="black" stroke-width="50" stroke-linecap="round"/>
<path d="M279.873 29.8231C279.028 29.8231 277.536 29.8231 275.407 29.7175C274.335 29.6118 273.278 29.4005 272.417 29.0804C271.556 28.7602 270.922 28.3376 270.269 27.9022" stroke="black" stroke-width="50" stroke-linecap="round"/>
<path d="M345.825 239.844V354.46" stroke="black" stroke-width="50" stroke-linecap="round"/>
<path d="M364.394 262.255C365.668 262.255 368.223 262.678 371.319 264.17C372.099 264.546 372.705 265.021 373.032 266.084C373.846 268.735 373.147 271.213 372.404 272.385C372 273.024 371.028 273.345 370.592 274.303C368.585 278.716 369.517 284.628 368.985 288.815C368.43 293.192 367.173 297.024 366.424 301.292C364.871 310.137 367.801 313.672 368.342 323.792C368.793 332.227 369.722 342.486 371.22 347.179C372.703 351.826 371.015 355.734 370.163 357.011C367.469 361.052 357.581 358.519 353.951 358.09C351.546 357.806 349.673 356.598 344.593 355.958C322.738 353.204 319.585 354.255 316.176 352.443C308.638 348.437 302.758 344.663 298.029 343.043C293.37 341.447 288.441 342.294 284.897 343.779C284.232 344.058 284.778 345.265 285.415 345.806C288.323 348.275 292.026 348.261 294.697 349.228C298.242 350.512 302.271 350.618 306.001 351.681C307.351 352.065 309.289 351.898 310.269 351.37C314.141 349.282 309.545 340.194 310.922 330.499C312.397 320.11 311.46 312.212 311.78 309.552C312.123 306.698 312.945 297.972 314.546 285.924C315.496 278.779 314.879 275.497 314.242 273.794C313.539 271.915 312.107 270.586 311.149 269.52C308.87 266.981 303.578 267.39 299.739 264.4C296.26 261.69 293.115 261.833 290.778 261.932C286.659 262.107 283.305 266.936 280.322 270.022C274.656 275.882 278.157 286.126 279.438 291.476C281.583 300.437 290.746 303.004 292.779 305.787C293.272 306.462 293.947 307.064 295.33 307.391C296.714 307.717 298.827 307.717 300.021 306.978C302.254 305.595 301.644 296.051 301.433 284.426C301.271 275.551 296.329 271.45 292.692 267.499C288.755 263.222 283.305 260.129 280.523 257.888C277.871 255.752 274.136 251.396 270.387 248.389C269.195 247.433 267.714 247.317 266.331 247.314C264.528 247.309 263.021 249.654 261.634 251.463C259.247 254.578 260.024 266.635 260.555 281.394C261.157 298.102 261.087 309.843 261.727 311.441C262.812 314.147 262.585 318.999 263.117 323.597C264.113 332.213 264.929 335.238 265.252 337.802C265.358 338.446 265.569 339.079 266.1 339.723C266.632 340.366 267.477 341 268.988 341.653" stroke="black" stroke-width="50" stroke-linecap="round"/>
<path d="M80.7374 45.1906C80.9487 45.6132 81.16 46.0358 81.2689 64.3198C81.3778 82.6038 81.3778 118.736 81.3778 155.964" stroke="black" stroke-width="50" stroke-linecap="round"/>
<path d="M37.1965 31.7441C39.3223 31.9554 42.3061 32.5958 50.3548 32.9159C57.1312 33.1855 69.3912 33.0248 76.1272 33.2361C85.2985 33.5238 88.1906 35.3683 91.0784 36.7546C94.739 38.5118 98.6533 41.336 101.218 42.5205C103.595 43.6188 106.76 43.91 109.004 43.6987C111.178 43.494 105.082 39.0181 103.049 34.4302C102.524 33.2447 101.88 32.1924 99.7578 31.6481C86.9433 28.3623 77.9713 35.5732 74.9875 37.0747C71.173 38.9942 67.7392 44.307 64.3167 49.7592C60.6471 55.6053 57.6992 57.5614 55.346 60.0138C54.1556 61.2544 54.4848 64.3807 54.9074 67.579C55.5605 72.5215 61.7331 75.0546 63.7597 78.2594C67.0218 83.4179 69.1991 87.2205 71.1264 91.0655C72.6414 94.088 74.3344 96.4025 75.2884 101.407C76.7211 108.921 79.6617 111.975 80.3085 115.506C80.9473 118.995 82.8633 123.078 85.4213 125.543C86.0802 126.178 87.3326 125.87 87.8769 124.602C91.8627 115.317 91.8276 105.61 92.4743 101.765C93.1902 97.5089 95.6695 92.1637 97.4847 89.4872C99.265 86.8623 101.432 84.2623 102.61 81.5922C104.44 77.4446 109.526 72.1092 111.363 68.2577C111.916 67.1007 111.472 65.0786 111.789 64.0989C112.106 63.1193 112.74 63.1193 113.278 63.4362C115.881 64.9701 118.285 68.2289 123.725 75.8934C127.751 81.5663 129.824 86.1576 131.104 89.2535C132.234 91.9839 134.293 97.2349 135.481 100.994C136.65 104.695 139.21 108.133 139.752 111.238C140.435 115.159 143.27 119.236 145.188 124.355C146.664 128.296 148.802 132.67 152.228 139.611C154.477 144.168 156.076 146.347 159.374 151.78C162.011 156.124 163.965 158.935 167.166 162.566C170.703 166.576 172.506 169.398 174.959 173.131C177.553 177.079 183.353 185.354 187.976 192.122C191.973 197.973 194.059 201.836 196.518 204.618C198.716 207.104 202.998 212.913 206.869 216.252C209.444 218.474 211.348 220.84 213.912 223.081C216.375 225.233 221.567 229.779 225.755 233.006C227.983 234.491 230.979 237.053 233.858 239.72C235.045 240.696 235.679 240.907 237.613 241.765" stroke="black" stroke-width="50" stroke-linecap="round"/>
<path d="M109.551 125.229C110.826 126.292 113.803 129.686 118.071 134.6C125.012 142.593 128.748 151.892 131.207 155.948C132.417 157.945 136.195 165.082 142.588 174.891C149.307 185.2 155.846 189.67 162.755 196.576C167.205 201.024 175.759 208.738 180.536 213.083C187.794 219.684 191.498 221.903 196.72 224.999C200.368 227.162 204.074 232.558 209.1 236.521C214.925 241.114 221.336 247.899 225.652 253.704C228.642 256.486 231.62 258.618 234.933 261.602C235.686 262.46 236.32 263.305 235.692 264.816" stroke="black" stroke-width="50" stroke-linecap="round"/>
<path d="M110.832 164.288C113.387 165.351 115.942 167.477 120.421 174.93C122.745 178.798 124.483 182.409 126.83 186.577C129.032 190.489 131.744 193.934 133.979 197.251C136.847 201.508 137.719 204.403 144.384 211.604C150.233 217.922 161.826 228.946 168.127 235.032C176.709 243.322 180.177 246.657 184.026 249.225C191.22 254.025 198.541 259.681 201.954 263.414C207.288 267.999 216.637 276.086 227.314 282.287C231.985 285.044 239.803 289.904 248.498 294.911" stroke="black" stroke-width="50" stroke-linecap="round"/>
<path d="M100.587 182.217C103.993 183.068 106.977 184.342 109.753 185.626C113.21 187.225 116.556 194.331 122.226 202.354C130.095 213.488 133.87 215.5 135.903 218.064C138.387 221.198 142.194 223.824 144.97 227.554C149.271 233.333 151.376 237.053 154.254 239.835C156.815 242.31 159.483 245.159 160.984 248.265C163.518 253.506 169.497 262.639 172.615 266.196C174.308 268.127 177.181 272.052 182.841 275.788C194.073 283.202 198.324 287.855 201.637 289.676C205.024 291.538 209.427 294.258 211.885 295.759C214.152 297.144 216.893 298.74 223.075 302.262C229.497 305.92 237.383 309.42 240.696 311.018C241.449 311.553 242.082 312.187 242.832 312.513C243.581 312.84 244.426 312.84 245.297 313.48" stroke="black" stroke-width="50" stroke-linecap="round"/>
<path d="M148.61 239.204C146.504 239.844 139.659 239.422 136.457 238.141C135.635 237.812 134.754 237.924 134.635 237.712C134.517 237.501 135.151 237.078 136.217 237.178C141.099 237.632 144.743 240.254 148.172 243.142C152.736 246.987 156.076 251.357 160.12 258.705C162.293 262.654 165.668 266.507 168.982 270.883C171.538 274.261 175.913 276.752 178.695 279.428C181.149 281.789 183.814 284.653 185.847 287.218C188.434 290.481 191.075 294.68 194.056 298.628C199.113 305.326 204.074 309.395 208.252 312.51C212.731 315.85 220.261 323.251 226.501 327.346C229.141 329.079 232.26 331.396 236.633 333.96C242.723 336.525 246.142 337.812 247.845 338.023C248.703 338.234 249.548 338.657 251.06 339.733" stroke="black" stroke-width="50" stroke-linecap="round"/>
</svg>
