<?xml version="1.0" encoding="UTF-8"?> <svg xmlns="http://www.w3.org/2000/svg" width="29" height="29" viewBox="0 0 29 29" fill="none"><rect width="28.3333" height="28.3333" rx="14.1667" fill="#24242B"></rect><path d="M17.0092 13.2707C16.765 13.2707 16.5718 13.0665 16.5718 12.8215C16.5718 12.6057 16.3617 12.1565 16.0095 11.7657C15.6629 11.3865 15.2823 11.1648 14.9642 11.1648C14.72 11.1648 14.5268 10.9607 14.5268 10.7157C14.5268 10.4707 14.7256 10.2665 14.9642 10.2665C15.5323 10.2665 16.1287 10.5815 16.6514 11.1473C17.1399 11.6782 17.4523 12.3373 17.4523 12.8157C17.4523 13.0665 17.2535 13.2707 17.0092 13.2707Z" fill="white"></path><path d="M19.0599 13.271C18.8156 13.271 18.6225 13.0668 18.6225 12.8218C18.6225 10.751 16.9808 9.07096 14.9698 9.07096C14.7256 9.07096 14.5324 8.86679 14.5324 8.62179C14.5324 8.37679 14.7256 8.16679 14.9641 8.16679C17.4636 8.16679 19.4973 10.2551 19.4973 12.8218C19.4973 13.0668 19.2985 13.271 19.0599 13.271Z" fill="white"></path><path d="M13.2771 15.721L12.2261 16.8001C12.0046 17.0276 11.6524 17.0276 11.4252 16.806C11.3627 16.7418 11.3002 16.6835 11.2377 16.6193C10.6526 16.0126 10.1243 15.3768 9.65282 14.7118C9.18701 14.0468 8.81209 13.3818 8.53942 12.7226C8.27243 12.0576 8.13609 11.4218 8.13609 10.8151C8.13609 10.4185 8.20426 10.0393 8.3406 9.68929C8.47693 9.33346 8.69279 9.00679 8.99387 8.71513C9.35743 8.34763 9.75507 8.16679 10.1754 8.16679C10.3345 8.16679 10.4936 8.20179 10.6356 8.27179C10.7833 8.34179 10.9139 8.44679 11.0162 8.59846L12.3341 10.506C12.4363 10.6518 12.5102 10.786 12.5613 10.9143C12.6124 11.0368 12.6408 11.1593 12.6408 11.2701C12.6408 11.4101 12.6011 11.5501 12.5215 11.6843C12.4477 11.8185 12.3398 11.9585 12.2034 12.0985L11.7717 12.5593C11.7092 12.6235 11.6808 12.6993 11.6808 12.7926C11.6808 12.8393 11.6865 12.8801 11.6978 12.9268C11.7149 12.9735 11.7319 13.0085 11.7433 13.0435C11.8455 13.236 12.0216 13.4868 12.2716 13.7901C12.5272 14.0935 12.7999 14.4026 13.0953 14.7118C13.1521 14.7701 13.2146 14.8285 13.2714 14.8868C13.4986 15.1143 13.5043 15.4876 13.2771 15.721Z" fill="white"></path><path d="M19.4803 17.6924C19.4803 17.8557 19.4519 18.0249 19.3951 18.1882C19.3781 18.2349 19.361 18.2816 19.3383 18.3282C19.2417 18.5382 19.1167 18.7366 18.952 18.9232C18.6737 19.2382 18.3669 19.4657 18.0204 19.6116C18.0147 19.6116 18.009 19.6174 18.0033 19.6174C17.6682 19.7574 17.3046 19.8332 16.9127 19.8332C16.3332 19.8332 15.714 19.6932 15.0608 19.4074C14.4075 19.1216 13.7542 18.7366 13.1066 18.2524C12.8851 18.0832 12.6636 17.9141 12.4534 17.7332L14.3109 15.8257C14.47 15.9482 14.612 16.0416 14.7313 16.1057C14.7597 16.1174 14.7938 16.1349 14.8336 16.1524C14.879 16.1699 14.9244 16.1757 14.9756 16.1757C15.0721 16.1757 15.146 16.1407 15.2085 16.0766L15.6402 15.6391C15.7822 15.4932 15.9186 15.3824 16.0492 15.3124C16.1799 15.2307 16.3105 15.1899 16.4525 15.1899C16.5605 15.1899 16.6741 15.2132 16.799 15.2657C16.924 15.3182 17.0547 15.3941 17.1967 15.4932L19.077 16.8641C19.2247 16.9691 19.3269 17.0916 19.3894 17.2374C19.4462 17.3832 19.4803 17.5291 19.4803 17.6924Z" fill="white"></path></svg> 