<?xml version="1.0" encoding="UTF-8"?> <svg xmlns="http://www.w3.org/2000/svg" width="321" height="83" viewBox="0 0 321 83" fill="none"><path d="M104.069 63.6973V18.5331H119.877L127.684 57.8904H128.845L136.652 18.5331H152.46V63.6973H144.201V24.7916H143.04L135.297 63.6973H121.232L113.489 24.7916H112.328V63.6973H104.069ZM173.87 64.6005C170.687 64.6005 167.826 63.9553 165.289 62.6649C162.751 61.3745 160.751 59.5034 159.288 57.0517C157.826 54.5999 157.095 51.6535 157.095 48.2124V47.1801C157.095 43.739 157.826 40.7926 159.288 38.3408C160.751 35.889 162.751 34.018 165.289 32.7275C167.826 31.4371 170.687 30.7919 173.87 30.7919C177.053 30.7919 179.913 31.4371 182.451 32.7275C184.989 34.018 186.989 35.889 188.451 38.3408C189.914 40.7926 190.645 43.739 190.645 47.1801V48.2124C190.645 51.6535 189.914 54.5999 188.451 57.0517C186.989 59.5034 184.989 61.3745 182.451 62.6649C179.913 63.9553 177.053 64.6005 173.87 64.6005ZM173.87 57.3743C176.365 57.3743 178.429 56.5785 180.064 54.987C181.698 53.3525 182.516 51.0298 182.516 48.0188V47.3736C182.516 44.3627 181.698 42.0615 180.064 40.47C178.472 38.8355 176.408 38.0182 173.87 38.0182C171.375 38.0182 169.31 38.8355 167.676 40.47C166.041 42.0615 165.224 44.3627 165.224 47.3736V48.0188C165.224 51.0298 166.041 53.3525 167.676 54.987C169.31 56.5785 171.375 57.3743 173.87 57.3743ZM210.795 64.6005C207.612 64.6005 204.752 63.9553 202.214 62.6649C199.676 61.3745 197.676 59.5034 196.213 57.0517C194.751 54.5999 194.02 51.6535 194.02 48.2124V47.1801C194.02 43.739 194.751 40.7926 196.213 38.3408C197.676 35.889 199.676 34.018 202.214 32.7275C204.752 31.4371 207.612 30.7919 210.795 30.7919C213.978 30.7919 216.838 31.4371 219.376 32.7275C221.914 34.018 223.914 35.889 225.377 38.3408C226.839 40.7926 227.57 43.739 227.57 47.1801V48.2124C227.57 51.6535 226.839 54.5999 225.377 57.0517C223.914 59.5034 221.914 61.3745 219.376 62.6649C216.838 63.9553 213.978 64.6005 210.795 64.6005ZM210.795 57.3743C213.29 57.3743 215.354 56.5785 216.989 54.987C218.623 53.3525 219.441 51.0298 219.441 48.0188V47.3736C219.441 44.3627 218.623 42.0615 216.989 40.47C215.397 38.8355 213.333 38.0182 210.795 38.0182C208.3 38.0182 206.236 38.8355 204.601 40.47C202.967 42.0615 202.149 44.3627 202.149 47.3736V48.0188C202.149 51.0298 202.967 53.3525 204.601 54.987C206.236 56.5785 208.3 57.3743 210.795 57.3743ZM232.493 63.6973V31.6952H240.494V35.889H241.655C242.172 34.7707 243.139 33.7169 244.559 32.7275C245.978 31.6952 248.129 31.1791 251.011 31.1791C253.506 31.1791 255.678 31.7597 257.527 32.9211C259.42 34.0395 260.882 35.6094 261.915 37.6311C262.947 39.6097 263.463 41.9324 263.463 44.5993V63.6973H255.334V45.2445C255.334 42.8357 254.731 41.0292 253.527 39.8248C252.366 38.6204 250.688 38.0182 248.495 38.0182C246 38.0182 244.064 38.857 242.688 40.5345C241.311 42.169 240.623 44.4702 240.623 47.4382V63.6973H232.493ZM266.316 63.6973L278.187 18.5331H293.027L304.899 63.6973H296.124L293.672 53.7611H277.542L275.09 63.6973H266.316ZM279.542 45.8897H291.672L286.188 23.8883H285.027L279.542 45.8897ZM307.724 63.6973V18.5331H316.241V63.6973H307.724Z" fill="white"></path><path d="M12.82 67.1881C10.7204 67.1881 8.64538 66.6222 6.82464 65.556C1.16559 62.2508 -0.74537 54.9514 2.56805 49.2924C3.83108 47.1354 5.81585 45.3884 8.14509 44.3797C14.0912 41.8126 17.6671 35.6696 16.9699 29.2396C16.6993 26.73 17.2406 24.2285 18.5364 22.0059C20.6606 18.3726 24.5974 16.1172 28.8129 16.1172C30.9125 16.1172 32.9875 16.6831 34.8083 17.7493C40.4673 21.0627 42.3783 28.3621 39.0649 34.0211C37.8018 36.1781 35.817 37.9251 33.4796 38.9338C27.5335 41.4927 23.9576 47.6275 24.6466 54.0657C24.8352 55.8372 24.7204 58.5273 23.0965 61.3076C20.9723 64.9327 17.0355 67.1881 12.82 67.1881Z" fill="#6A5EFD"></path><path d="M43.0914 67.1533C40.9919 67.1533 38.9169 66.5874 37.0961 65.5212C31.4371 62.2078 29.5261 54.9085 32.8395 49.2494C34.1026 47.0924 36.0873 45.3455 38.4248 44.3367C44.3709 41.7696 47.9467 35.6349 47.2578 29.2049C47.0692 27.4333 47.184 24.7432 48.8161 21.9629C50.9403 18.3296 54.877 16.0742 59.0926 16.0742C61.1922 16.0742 63.2672 16.6401 65.0879 17.7063C70.747 21.0197 72.658 28.3191 69.3445 33.9782C68.0815 36.1352 66.0967 37.8821 63.7593 38.8909C57.8132 41.4497 54.2373 47.5845 54.9262 54.0227C55.1149 55.7942 55.0001 58.4843 53.3762 61.2646C51.2438 64.8979 47.307 67.1533 43.0914 67.1533Z" fill="#6A5EFD"></path><path d="M73.5121 67.1536C71.4126 67.1536 69.3376 66.5877 67.5168 65.5215C64.7365 63.8894 62.8338 61.3879 62.0218 58.2713C61.2099 55.1547 61.6363 52.0382 63.2602 49.2578C65.3844 45.6246 69.3212 43.3691 73.5368 43.3691C75.6363 43.3691 77.7113 43.935 79.5321 45.0012C82.3124 46.6251 84.2151 49.1348 85.0271 52.2596C85.839 55.3762 85.4126 58.4928 83.7887 61.2731C81.6645 64.8982 77.7277 67.1536 73.5121 67.1536Z" fill="#6A5EFD"></path></svg> 