<?xml version="1.0" encoding="UTF-8"?> <svg xmlns="http://www.w3.org/2000/svg" width="14" height="15" viewBox="0 0 14 15" fill="none"><path d="M4.64367 3.83778C4.81591 3.12824 5.80775 3.12824 5.97999 3.83778L6.59652 6.37763C6.71905 6.88241 7.1066 7.27653 7.60295 7.40115L10.1004 8.02815C10.7981 8.20331 10.7981 9.212 10.1004 9.38716L7.60295 10.0142C7.1066 10.1388 6.71905 10.5329 6.59652 11.0377L5.97999 13.5775C5.80775 14.2871 4.81591 14.2871 4.64367 13.5775L4.02714 11.0377C3.9046 10.5329 3.51706 10.1388 3.02071 10.0142L0.523269 9.38716C-0.174424 9.212 -0.174423 8.20331 0.523271 8.02815L3.02071 7.40115C3.51706 7.27653 3.9046 6.88241 4.02714 6.37763L4.64367 3.83778Z" fill="#796DFD"></path><path d="M10.1812 0.311076C10.2819 -0.103693 10.8616 -0.103692 10.9623 0.311077L11.3227 1.79577C11.3944 2.09084 11.6209 2.32123 11.911 2.39407L13.3709 2.76059C13.7788 2.86299 13.7788 3.45262 13.3709 3.55501L11.911 3.92154C11.6209 3.99438 11.3944 4.22477 11.3227 4.51984L10.9623 6.00453C10.8616 6.4193 10.2819 6.4193 10.1812 6.00453L9.82077 4.51984C9.74915 4.22477 9.52261 3.99438 9.23246 3.92154L7.77256 3.55501C7.36472 3.45262 7.36472 2.86299 7.77256 2.76059L9.23246 2.39407C9.52261 2.32123 9.74915 2.09084 9.82077 1.79577L10.1812 0.311076Z" fill="#796DFD"></path></svg> 